HIERARCHY
ROOT Hips
{
  OFFSET -331.093 83.8371 -317.828
  CHANNELS 6 Xposition Yposition Zposition Zrotation Xrotation Yrotation
  JOINT LeftUpLeg
  {
    OFFSET 8.64259 1.95398 -2.38835
    CHANNELS 3 Zrotation Xrotation Yrotation
    JOINT LeftLeg
    {
      OFFSET 43.7702 0 0
      CHANNELS 3 Zrotation Xrotation Yrotation
      JOINT LeftFoot
      {
        OFFSET 40.6238 0 0
        CHANNELS 3 Zrotation Xrotation Yrotation
        JOINT LeftToeBase
        {
          OFFSET 12.7242 0 0
          CHANNELS 3 Zrotation Xrotation Yrotation
          End Site
          {
            OFFSET 0 0 0
          }
        }
      }
    }
  }
  JOINT RightUpLeg
  {
    OFFSET -8.2249 1.95398 -2.59336
    CHANNELS 3 Zrotation Xrotation Yrotation
    JOINT RightLeg
    {
      OFFSET 43.5653 0 0
      CHANNELS 3 Zrotation Xrotation Yrotation
      JOINT RightFoot
      {
        OFFSET 40.6238 0 0
        CHANNELS 3 Zrotation Xrotation Yrotation
        JOINT RightToeBase
        {
          OFFSET 12.7242 0 0
          CHANNELS 3 Zrotation Xrotation Yrotation
          End Site
          {
            OFFSET 0 0 0
          }
        }
      }
    }
  }
  JOINT Spine
  {
    OFFSET 0.165834 0.87714 6.61349
    CHANNELS 3 Zrotation Xrotation Yrotation
    JOINT Spine1
    {
      OFFSET 7.38963 1.71661e-005 0
      CHANNELS 3 Zrotation Xrotation Yrotation
      JOINT Spine2
      {
        OFFSET 11.9445 1.14441e-005 0
        CHANNELS 3 Zrotation Xrotation Yrotation
        JOINT Spine3
        {
          OFFSET 14.7254 4.19617e-005 0
          CHANNELS 3 Zrotation Xrotation Yrotation
          JOINT Spine4
          {
            OFFSET 10.9679 0 0
            CHANNELS 3 Zrotation Xrotation Yrotation
            JOINT RightShoulder
            {
              OFFSET 2.46616 -1.6653 3.69651
              CHANNELS 3 Zrotation Xrotation Yrotation
              JOINT RightArm
              {
                OFFSET 13.0012 0 0
                CHANNELS 3 Zrotation Xrotation Yrotation
                JOINT RightForeArm
                {
                  OFFSET 28.7848 1.62311e-005 0
                  CHANNELS 3 Zrotation Xrotation Yrotation
                  JOINT RightHand
                  {
                    OFFSET 26.5688 1.62095e-005 0
                    CHANNELS 3 Zrotation Xrotation Yrotation
                    End Site
                    {
                      OFFSET 0 0 0
                    }
                  }
                }
              }
            }
            JOINT LeftShoulder
            {
              OFFSET 2.38034 -1.29275 -3.7523
              CHANNELS 3 Zrotation Xrotation Yrotation
              JOINT LeftArm
              {
                OFFSET 16.3182 6.07031e-005 0
                CHANNELS 3 Zrotation Xrotation Yrotation
                JOINT LeftForeArm
                {
                  OFFSET 27.0901 0 0
                  CHANNELS 3 Zrotation Xrotation Yrotation
                  JOINT LeftHand
                  {
                    OFFSET 24.5451 1.51738e-005 0
                    CHANNELS 3 Zrotation Xrotation Yrotation
                    End Site
                    {
                      OFFSET 0 0 0
                    }
                  }
                }
              }
            }
            JOINT Neck
            {
              OFFSET 5.0226 -0.0266342 0
              CHANNELS 3 Zrotation Xrotation Yrotation
              JOINT Head
              {
                OFFSET 6.69364 2.86102e-005 0
                CHANNELS 3 Zrotation Xrotation Yrotation
                End Site
                {
                  OFFSET 0 0 0
                }
              }
            }
          }
        }
      }
    }
  }
}
MOTION
Frames:	18
Frame Time:	0.0416667
-59.4718 88.6681 -176.186 -107.05 -84.4422 -114.748 -172.32 13.7304 112.02 -23.2522 19.4515 3.44129 48.2833 -6.70715 -2.51186 20.2811 -4.66626 13.7125 -178.843 26.6393 75.0109 -59.8447 -9.65677 -10.9947 78.2661 -9.67595 -5.01704 52.8289 -0.905374 -1.38279 -0.212125 7.5601 -89.7963 11.7542 -0.326145 0.440396 0.0831882 -0.306446 0.454326 -22.4519 -0.443434 0.322025 -2.43929 -0.443426 0.322019 91.799 -39.3596 -100.086 28.3974 -12.877 0.187522 -9.82149 -9.80554 -46.3661 -18.2094 -1.18731 2.40111 -97.2211 -49.8963 68.533 -11.2001 -1.31756 9.15593 7.37742 11.2355 -36.059 10.7051 0.818078 3.5446 -2.42027 1.04423 5.52216 2.94258 0.627086 5.87254 
-61.8275 89.3396 -176.541 -100.36 -84.2236 -108.745 -172.656 14.082 110.547 -23.4483 19.5142 3.23134 51.7245 -4.69764 -1.33471 22.2064 -3.05018 12.6522 -178.241 26.7009 76.1966 -59.0577 -8.84038 -10.9581 78.6095 -10.0002 -5.07506 51.3084 -0.778592 -1.14421 -0.212806 7.53808 -89.7698 11.7982 -0.314912 0.492528 0.127182 -0.292937 0.5059 -22.4078 -0.448382 0.375112 -2.39515 -0.448384 0.375108 91.5256 -39.4272 -100.545 27.6142 -13.3827 0.771592 -9.29193 -9.38127 -46.7368 -17.8206 -1.02406 1.43704 -97.2035 -50.2062 68.6602 -10.8974 -1.10567 9.21761 7.75784 11.0481 -37.5337 11.1186 0.933929 4.2774 -2.5356 1.11263 6.06891 3.39093 0.634596 5.35407 
-63.8317 90.2729 -176.989 -92.1884 -83.986 -101.171 -172.948 14.5216 108.363 -23.1716 17.0352 2.75091 53.7013 -3.51677 -0.978705 24.8962 -0.839749 11.3911 -178.039 26.7589 77.0994 -57.4295 -8.94549 -10.8755 78.303 -9.86103 -4.98406 50.1102 -0.46142 -0.246701 -0.18629 7.51681 -89.7588 11.8406 -0.25697 0.508184 0.16962 -0.234359 0.518997 -22.3652 -0.397826 0.407459 -2.35253 -0.397818 0.407464 91.4989 -39.1604 -100.662 27.0326 -13.707 0.805065 -9.22998 -9.25638 -46.8375 -17.5169 -1.03217 1.61571 -97.5349 -50.4218 68.2508 -10.716 -1.48186 9.25796 8.59106 11.2073 -39.143 11.2782 0.926511 4.11178 -2.35363 1.17008 6.12714 3.87017 0.713856 5.70009 
-65.575 91.2366 -177.405 -81.47 -83.952 -90.7962 -173.121 15.9478 105.922 -24.1496 14.2152 1.98572 56.0246 -2.58841 -1.35389 28.2434 2.67919 13.3361 -178.152 26.9198 77.9778 -55.3682 -9.32121 -10.6179 78.0562 -9.76867 -4.89238 48.2938 -0.0883632 0.886811 -0.175712 7.44806 -89.774 11.9781 -0.242727 0.477224 0.307056 -0.221493 0.487435 -22.2278 -0.374933 0.382212 -2.21514 -0.374934 0.382211 91.4066 -39.4961 -100.734 25.5743 -14.07 0.871105 -9.19203 -9.67457 -46.7646 -17.0467 -1.15485 2.70294 -97.7628 -50.5288 67.9566 -10.6863 -1.58709 9.15666 8.77678 10.6473 -40.4275 11.3131 0.9347 4.15759 -1.70095 1.30205 6.15982 3.40141 0.794298 5.97192 
-67.074 92.2058 -177.69 -76.7677 -83.8667 -86.1896 -172.901 16.3683 103.452 -24.394 12.0601 1.0458 57.9778 -0.839294 0.487156 29.8786 4.16358 13.1451 -178.354 26.2337 79.0063 -52.9907 -9.63431 -10.5422 77.3364 -9.29582 -4.69066 47.2848 0.153384 1.6914 -0.162368 7.45154 -89.7906 11.9709 -0.224063 0.441791 0.299945 -0.204393 0.451214 -22.2349 -0.346477 0.354025 -2.22231 -0.346473 0.354028 91.4623 -39.7013 -100.583 24.6647 -14.2108 0.611294 -8.90105 -9.8617 -45.9001 -16.4783 -1.05567 2.22692 -97.4677 -50.2985 68.3073 -11.029 -1.2818 8.626 8.41623 9.69657 -41.2539 11.5642 0.91001 3.80252 -1.46588 1.36586 5.88981 3.75749 0.906637 6.16472 
-68.3946 93.2116 -178.002 -73.6526 -84.0728 -83.0103 -172.675 16.9597 101.042 -25.4329 7.2831 0.260762 60.4598 -0.514235 -2.26558 30.7957 5.24343 13.8624 -178.795 25.123 79.9987 -50.0895 -9.85214 -10.3349 76.5929 -8.87248 -4.48152 45.6935 0.357738 2.42739 -0.185312 7.46296 -89.8293 11.9484 -0.287923 0.371613 0.277449 -0.271291 0.383922 -22.2577 -0.386301 0.267898 -2.24508 -0.386302 0.267898 91.4454 -39.3585 -100.703 24.4998 -14.0135 0.847896 -8.39749 -9.98739 -45.3857 -16.3536 -1.08415 2.50647 -97.4865 -50.2942 68.2787 -11.0393 -0.975429 8.48348 8.88038 9.56176 -42.7982 11.4766 0.903545 3.80145 -1.78598 1.28646 6.11097 4.3252 0.825737 5.76445 
-69.5098 94.1778 -178.191 -72.8224 -84.3841 -82.1356 -172.782 17.0976 98.2599 -26.4796 4.9829 -0.39842 61.5046 0.235347 -1.46688 32.3899 6.60963 13.3455 -179.247 23.6665 80.8174 -47.1958 -10.0503 -10.1764 75.6903 -8.38754 -4.24905 44.0112 0.464744 2.87779 -0.186796 7.48765 -89.8829 11.8988 -0.316207 0.267567 0.227916 -0.304126 0.281217 -22.3074 -0.38201 0.160166 -2.2948 -0.382008 0.160167 91.6295 -38.8689 -100.511 24.4544 -13.6472 0.975631 -8.24701 -9.91427 -44.4735 -15.536 -1.06249 2.75452 -98.2016 -50.8358 67.4272 -10.3929 -0.888096 8.32239 9.23457 9.37202 -44.0314 11.7395 0.917118 3.75641 -1.71599 1.06321 6.66625 4.1146 0.497083 5.30082 
-70.4984 95.0186 -178.358 -70.8104 -85.1166 -79.8231 -172.906 17.3921 95.7644 -27.7256 3.67808 -1.0031 62.9696 1.10625 -1.27208 33.0483 7.56124 14.2974 -179.961 22.2272 81.7725 -44.2538 -9.70213 -9.81001 74.7356 -7.75241 -3.97335 42.5248 0.59101 3.4532 -0.223008 7.49028 -89.9064 11.8938 -0.399296 0.229605 0.222876 -0.388806 0.246955 -22.3127 -0.449848 0.0989714 -2.30009 -0.449845 0.098981 91.6329 -39.1532 -100.43 24.2395 -13.3209 1.32099 -7.85868 -9.39423 -43.8431 -15.0974 -1.06114 2.99158 -98.1768 -50.5939 67.3815 -10.2223 -0.839836 8.06298 9.95448 9.65483 -45.2233 12.0174 0.962796 3.95912 -2.09732 0.917531 6.116 4.25826 0.455162 5.41275 
-71.4087 95.8384 -178.436 -70.2418 -85.6061 -78.819 -173.009 17.5202 93.4999 -29.1243 2.86174 -1.56594 64.6593 2.09265 -0.82785 34.0114 8.28836 13.6986 179.732 20.6231 82.8207 -41.3351 -9.83429 -9.571 73.2805 -7.00234 -3.63893 41.614 0.272082 2.1374 -0.250041 7.48922 -89.9516 11.8958 -0.47435 0.147466 0.22494 -0.467405 0.168196 -22.3109 -0.496746 -0.00191593 -2.29826 -0.49674 -0.0019176 91.5357 -39.08 -100.619 24.4387 -12.6279 1.9098 -8.04901 -9.73325 -43.3698 -14.3474 -0.987997 2.78843 -98.2711 -50.5969 67.2465 -10.0484 -0.729909 7.95697 9.99632 9.21633 -46.1099 12.5452 0.963265 3.66604 -2.6804 0.755548 5.82293 4.57531 0.361376 5.16589 
-72.2408 96.4145 -178.526 -72.3953 -86.1647 -80.6729 -173.167 17.0817 91.2508 -29.8706 3.50669 -2.09364 65.5769 3.16098 0.286564 36.2196 10.6832 14.3355 179.414 19.0109 83.7234 -38.8505 -8.60382 -9.43721 73.3448 -6.88429 -3.54918 39.1289 0.660357 3.97311 -0.277529 7.50584 -89.9698 11.8626 -0.537654 0.117623 0.191806 -0.531952 0.14118 -22.3442 -0.548149 -0.0493999 -2.33159 -0.548149 -0.0493941 91.6658 -39.1209 -100.381 24.5232 -12.2978 2.24554 -7.97706 -9.56828 -42.8032 -13.6227 -0.93658 2.75694 -98.031 -50.4102 67.5295 -10.2744 -0.614801 7.67062 9.61017 8.44458 -46.6661 12.0145 0.88985 3.38583 -2.88204 0.748211 5.39 4.48846 0.411793 5.19141 
-73.0232 96.9561 -178.573 -71.1416 -86.9865 -78.8284 -173.054 16.7495 89.6636 -30.1628 5.44053 -2.78945 65.8389 4.09354 1.88624 37.014 11.3298 13.9835 178.661 17.6048 84.6198 -36.4847 -8.60258 -8.92806 72.8747 -6.48618 -3.37506 37.4547 0.611955 3.96414 -0.322393 7.49484 -90.0082 11.8815 -0.644897 0.0527304 0.210745 -0.641948 0.0810658 -22.3257 -0.630934 -0.143535 -2.313 -0.630925 -0.143522 91.6327 -38.8888 -100.5 25.2314 -11.6268 2.74995 -7.44721 -8.973 -41.9428 -13.5334 -0.960229 3.05958 -98.0441 -50.1522 67.4236 -10.3447 -0.446158 7.44603 9.23461 7.73466 -47.2565 11.5834 0.867606 3.44544 -2.8686 0.545264 4.70561 3.97782 0.26922 5.2417 
-73.7283 97.3853 -178.523 -71.8719 -87.6641 -78.9294 -173.107 15.922 88.4479 -29.5612 7.74706 -3.26494 65.7146 5.03042 3.75633 37.0675 11.4788 14.226 177.918 16.1688 85.4236 -34.3722 -9.26265 -8.44704 72.1351 -5.9196 -3.14032 36.9783 0.464516 3.19073 -0.343763 7.50044 -90.0217 11.8744 -0.6937 0.0310806 0.203647 -0.691663 0.0615732 -22.3329 -0.670973 -0.178862 -2.32028 -0.670965 -0.178852 91.7521 -39.7554 -100.065 24.7882 -11.0208 2.94862 -7.0545 -8.20736 -41.3088 -12.1522 -0.976222 4.24547 -97.8901 -49.7653 67.5161 -10.1965 0.191779 6.81246 8.79079 7.26126 -47.3593 11.3402 0.837546 3.33613 -3.10853 0.608503 3.72672 3.9728 0.46299 5.47315 
-74.4042 97.7376 -178.458 -75.4429 -88.6375 -81.5854 -173.391 14.6906 88.0254 -28.2575 8.35521 -3.23733 65.6706 4.56671 2.83099 37.8674 11.9441 13.4523 176.928 14.5259 86.3183 -32.0645 -9.78646 -7.59548 71.6585 -5.5578 -2.97322 35.8471 0.388785 2.83155 -0.405446 7.50476 -90.0603 11.8645 -0.834586 -0.0309421 0.193851 -0.835135 0.00581848 -22.3433 -0.786695 -0.280352 -2.33062 -0.786699 -0.280363 91.7741 -39.7488 -100.029 25.8259 -9.9582 3.38617 -7.30235 -7.89324 -40.7182 -11.5026 -0.696955 1.67466 -97.6619 -49.4816 67.7525 -10.2129 0.781225 6.45647 8.71221 7.05964 -47.8145 11.9737 0.897356 3.46745 -2.04884 -0.054287 2.1957 2.845 -0.0534478 6.40271 
-75.0064 98.0588 -178.328 -92.0095 -88.9538 -97.6176 -173.768 13.0508 87.6477 -26.1625 9.17678 -3.12133 65.5576 4.64172 2.89599 34.9667 9.20762 13.6731 176.39 13.1318 87.0092 -30.2605 -9.82949 -7.22128 71.1473 -5.13565 -2.79444 35.1264 0.52278 3.62836 -0.40369 7.49793 -90.0756 11.8781 -0.838281 -0.0609842 0.207402 -0.840155 -0.0240422 -22.3297 -0.781203 -0.310119 -2.31704 -0.781202 -0.310127 91.894 -40.0367 -99.748 26.155 -9.55785 3.74123 -7.75564 -8.58918 -40.4887 -11.5161 -0.78696 2.65275 -97.7313 -49.4706 67.6475 -10.1898 1.62029 5.98646 8.47698 6.92252 -47.7696 11.2353 0.834794 3.37326 -2.7434 -0.123266 1.91133 3.45095 -0.0741951 5.71823 
-75.5055 98.3457 -178.141 -110.066 -88.8872 -115.084 -174.516 11.2148 87.7983 -23.3414 7.03952 -2.40275 64.733 3.87873 2.52894 31.8198 5.32866 10.9473 175.768 11.5026 87.5306 -28.0426 -10.6749 -6.62377 70.83 -5.08326 -2.74422 34.1937 0.511887 3.65051 -0.394018 7.46776 -90.0871 11.9383 -0.82444 -0.0847231 0.267624 -0.827376 -0.0483594 -22.2694 -0.760866 -0.328604 -2.25671 -0.760862 -0.328604 91.8844 -40.0309 -99.766 26.7961 -9.60319 4.35784 -7.46686 -8.3954 -40.0527 -11.5687 -0.781306 2.55616 -97.8165 -49.6638 67.5887 -10.2459 2.15128 5.88511 8.21573 6.85657 -47.3852 11.8107 0.82564 2.98819 -3.42325 -0.377792 1.93877 3.84075 -0.347778 4.74408 
-75.9448 98.6824 -178 -126.518 -88.8178 -130.71 -175.098 9.48681 88.5876 -20.2918 6.39554 -1.64042 63.4634 2.92639 2.75295 30.8494 3.63744 8.10646 175.317 9.56145 88.2131 -25.1135 -11.148 -5.96783 70.0695 -4.9432 -2.63916 33.449 0.608718 4.32769 -0.405105 7.43892 -90.1049 11.9959 -0.854878 -0.116372 0.325209 -0.859177 -0.0786353 -22.2119 -0.780383 -0.367928 -2.19921 -0.780385 -0.367937 92.0044 -40.0575 -99.552 27.6768 -9.20566 4.76973 -7.15181 -7.60794 -39.9885 -10.3966 -0.689311 2.37729 -97.699 -49.6535 67.7563 -10.5194 2.74584 5.87741 8.14335 6.97614 -47.0835 12.2102 0.786596 2.47683 -3.5747 -0.394973 1.30202 3.29397 -0.318981 4.66515 
-76.2802 98.8253 -177.85 -135.12 -88.7109 -138.711 -175.164 7.93114 89.2357 -17.8786 6.93949 -1.34091 63.3567 3.09036 2.89728 30.8403 3.20136 6.51712 175.038 8.43661 88.8008 -23.674 -11.5159 -5.61302 69.8497 -4.7921 -2.56731 32.5962 0.618506 4.50934 -0.396813 7.39681 -90.1069 12.0801 -0.839313 -0.121125 0.409394 -0.843831 -0.084066 -22.1276 -0.764106 -0.367788 -2.11495 -0.764109 -0.367789 91.7499 -40.6291 -99.847 27.7372 -8.80781 5.05842 -7.11866 -7.42413 -39.3103 -9.68524 -0.667645 2.69544 -97.7588 -49.8096 67.7221 -10.5692 3.58922 5.6852 8.17044 7.26915 -46.8517 12.0329 0.761074 2.36109 -3.83542 -0.665574 0.714452 2.94605 -0.53984 4.5732 
-76.4798 98.9265 -177.868 -144.885 -88.8341 -148.084 -175.275 7.17818 89.6204 -16.5636 4.30877 -0.874697 64.436 2.67795 0.38582 29.2563 1.4902 4.93158 174.733 7.76152 89.1128 -22.3662 -11.5655 -5.22939 69.4048 -4.55687 -2.45328 32.2824 0.633029 4.65253 -0.397851 7.36401 -90.0795 12.1459 -0.828409 -0.0670258 0.475206 -0.830551 -0.0305065 -22.0618 -0.769968 -0.312914 -2.04919 -0.769969 -0.312915 92.0398 -40.7635 -99.3177 28.7743 -8.87525 6.43163 -8.8855 -8.42039 -42.6163 -9.63496 -0.8065 4.60141 -97.7249 -49.7171 67.7399 -10.8149 4.7435 5.63303 8.13219 7.24585 -47.131 12.3464 0.959321 3.7434 -3.8244 -0.875302 0.548915 2.6429 -0.772768 3.80833 
